<svg xmlns="http://www.w3.org/2000/svg" width="805.929" height="222.404" viewBox="0 0 213.235 58.844"><defs><clipPath id="a" clipPathUnits="userSpaceOnUse"><path d="M0 3330.786h1536V0H0z"/></clipPath></defs><g clip-path="url(#a)" transform="matrix(1.37709 0 0 -1.37709 -1044.41 141.895)" fill="#404041"><path d="M758.944 101.654h2.35a.501.501 0 0 0 .501-.5v-22.15a.5.5 0 0 1 .5-.5h10.093c.276 0 .5-.225.5-.501v-1.811a.5.5 0 0 0-.5-.501h-13.444a.5.5 0 0 0-.5.501v24.962a.5.5 0 0 0 .5.5m28.342-14.83c.29 0 .518.243.501.533-.115 2.134-1.177 4.975-4.689 4.975-3.14 0-4.665-2.651-5.106-4.902a.504.504 0 0 1 .492-.606zm-8.9-2.427a.502.502 0 0 1-.504-.528c.285-4.202 3.115-5.943 6.372-5.943 2.101 0 3.48.317 4.637.752a.499.499 0 0 0 .66-.353l.344-1.452a.504.504 0 0 0-.309-.584c-1.229-.49-3.142-.983-5.795-.983-5.739 0-9.167 3.775-9.167 9.399 0 5.624 3.312 10.054 8.744 10.054 6.086 0 7.704-5.354 7.704-8.783 0-.446-.032-.83-.065-1.137a.497.497 0 0 0-.497-.442zm26.708.312a.5.5 0 0 1-.496.502c-3.567.008-7.4-.744-7.4-4.204 0-2.195 1.463-3.235 3.197-3.235 2.427 0 3.967 1.54 4.507 3.12.115.346.192.732.192 1.079zm.947-9.018a.5.5 0 0 0-.497.444l-.219 1.907h-.115c-1.04-1.464-3.043-2.774-5.7-2.774-3.776 0-5.702 2.658-5.702 5.354 0 4.507 4.006 6.972 11.21 6.934v.385c0 1.54-.424 4.314-4.238 4.314a9.438 9.438 0 0 1-4.355-1.092.496.496 0 0 0-.698.283l-.439 1.273a.497.497 0 0 0 .212.594c1.52.882 3.6 1.446 5.781 1.446 5.701 0 7.087-3.89 7.087-7.627V80.16c0-1.382.057-2.736.217-3.893a.5.5 0 0 0-.493-.576zm7.799 13.599c0 1.703-.03 3.137-.117 4.513a.5.5 0 0 0 .498.532h2a.5.5 0 0 0 .499-.469l.163-2.613h.078c.924 1.772 3.08 3.506 6.163 3.506 2.58 0 6.587-1.54 6.587-7.935V76.191c0-.276-.225-.5-.501-.5h-2.39a.5.5 0 0 0-.5.5v10.247c0 3.005-1.117 5.51-4.313 5.51-2.235 0-3.968-1.58-4.546-3.468-.154-.424-.231-1.002-.231-1.579v-10.71a.5.5 0 0 0-.5-.5h-2.39a.5.5 0 0 0-.5.5zm43.375-2.197c-.192 3.621-.424 7.974-.385 11.21h-.116c-.886-3.043-1.964-6.279-3.273-9.861l-4.465-12.267a.5.5 0 0 0-.47-.33h-1.833a.503.503 0 0 0-.475.34l-4.083 12.025c-1.233 3.66-2.273 7.011-3.004 10.093h-.078c-.076-3.236-.269-7.589-.5-11.479l-.664-10.663a.502.502 0 0 0-.5-.47h-2.19a.5.5 0 0 0-.499.535l1.74 24.963a.5.5 0 0 0 .5.465h3.455a.5.5 0 0 0 .471-.334l4.312-12.224c1.08-3.196 1.965-6.047 2.62-8.744h.115c.655 2.62 1.58 5.47 2.735 8.744l4.502 12.23a.5.5 0 0 0 .47.328h3.456a.502.502 0 0 0 .5-.469l1.555-24.962a.501.501 0 0 0-.5-.532h-2.268a.502.502 0 0 0-.5.472zm9.44-10.901v17.643a.5.5 0 0 0 .5.5h2.39a.501.501 0 0 0 .5-.5V76.192a.5.5 0 0 0-.5-.5h-2.39a.5.5 0 0 0-.5.5m3.774 23.382c.04-1.155-.808-2.08-2.156-2.08-1.194 0-2.042.925-2.042 2.08 0 1.194.886 2.119 2.118 2.119 1.272 0 2.08-.925 2.08-2.12m5.241-10.283c0 1.703-.03 3.137-.119 4.512a.5.5 0 0 0 .498.533h2a.5.5 0 0 0 .5-.469l.163-2.613h.077c.924 1.772 3.081 3.506 6.164 3.506 2.58 0 6.586-1.54 6.586-7.935V76.191a.5.5 0 0 0-.5-.5h-2.39a.5.5 0 0 0-.5.5v10.247c0 3.005-1.117 5.51-4.314 5.51-2.234 0-3.968-1.58-4.545-3.468-.154-.424-.23-1.002-.23-1.579v-10.71a.5.5 0 0 0-.5-.5h-2.39a.5.5 0 0 0-.5.5zm34.091-2.544c0 .424-.039 1.001-.154 1.425-.5 2.158-2.349 3.93-4.892 3.93-3.505 0-5.585-3.082-5.585-7.204 0-3.775 1.85-6.895 5.508-6.895 2.273 0 4.353 1.503 4.97 4.045.114.462.153.925.153 1.464zm2.89 16.294a.5.5 0 0 0 .5-.5V80.505c0-1.44.03-3.053.113-4.285a.499.499 0 0 0-.5-.53h-2.025a.501.501 0 0 0-.5.477l-.13 2.76h-.078c-1.04-2.082-3.313-3.66-6.356-3.66-4.506 0-7.973 3.813-7.973 9.475-.039 6.202 3.813 10.016 8.36 10.016 2.85 0 4.775-1.349 5.622-2.85h.077v10.63a.5.5 0 0 0 .5.501z"/></g><g style="-inkscape-font-specification:'Myriad Pro, Normal';font-variant-ligatures:normal;font-variant-caps:normal;font-variant-numeric:normal;font-feature-settings:normal;text-align:start"><path d="M5.171 52.932H1.289v-3.156h4.104v-1.081H0v9.986h5.616V57.6H1.289V54h3.882zm8.944 5.749h1.289v-4.519h3.778v-1.067h-3.778v-3.319h4.09v-1.081h-5.38zm14.039 0h1.29v-4.519h3.778v-1.067h-3.779v-3.319h4.09v-1.081h-5.379zm14.04-9.986v9.986h1.29v-9.986zm17.04 8.638c-.519.252-1.319.415-2.104.415-2.43 0-3.838-1.57-3.838-4.015 0-2.623 1.556-4.12 3.897-4.12.83 0 1.526.178 2.015.415l.311-1.052c-.34-.177-1.126-.444-2.37-.444-3.097 0-5.216 2.119-5.216 5.245 0 3.274 2.119 5.052 4.934 5.052 1.215 0 2.163-.237 2.637-.474zm8.72-8.638v9.986h1.289v-9.986zm15.499 4.237H79.57v-3.156h4.104v-1.081h-5.393v9.986h5.615V57.6H79.57V54h3.882zm10.158 5.749v-4.267c0-1.66-.03-2.86-.104-4.119l.045-.015c.504 1.082 1.17 2.223 1.867 3.334l3.17 5.067h1.304v-9.986h-1.215v4.178c0 1.556.03 2.77.149 4.104l-.03.015a28.267 28.267 0 0 0-1.793-3.245l-3.2-5.052h-1.408v9.986zm17.281 0h1.304v-8.89h3.052v-1.096h-7.393v1.096h3.037zm22.217 0h1.289v-4c.296.074.652.089 1.037.089 1.26 0 2.37-.37 3.052-1.097.504-.518.77-1.23.77-2.133 0-.89-.325-1.615-.874-2.09-.592-.533-1.526-.83-2.8-.83a14.94 14.94 0 0 0-2.474.193zm1.289-8.934c.222-.06.652-.104 1.215-.104 1.422 0 2.356.637 2.356 1.956 0 1.378-.949 2.134-2.504 2.134-.43 0-.786-.03-1.067-.104zm18.595 3.185h-3.882v-3.156h4.104v-1.081h-5.393v9.986h5.616V57.6h-4.327V54h3.882zm12.989-4.4c-2.667 0-4.638 2.074-4.638 5.245 0 3.023 1.852 5.067 4.49 5.067 2.548 0 4.637-1.822 4.637-5.26 0-2.963-1.763-5.052-4.49-5.052zm-.06 1.052c2.149 0 3.186 2.074 3.186 4.06 0 2.267-1.156 4.148-3.2 4.148-2.03 0-3.186-1.911-3.186-4.045 0-2.193 1.067-4.163 3.2-4.163zM179 58.681h1.29v-4c.296.074.651.089 1.036.089 1.26 0 2.371-.37 3.053-1.097.503-.518.77-1.23.77-2.133 0-.89-.326-1.615-.874-2.09-.593-.533-1.526-.83-2.8-.83a14.94 14.94 0 0 0-2.475.193zm1.29-8.934c.221-.06.651-.104 1.214-.104 1.423 0 2.356.637 2.356 1.956 0 1.378-.948 2.134-2.504 2.134-.43 0-.785-.03-1.067-.104zm13.423 8.934h5.557V57.6h-4.268v-8.905h-1.289zm18.987-5.749h-3.882v-3.156h4.104v-1.081h-5.393v9.986h5.615V57.6h-4.326V54h3.882z" style="line-height:24.20000076px;-inkscape-font-specification:'Myriad Pro, Normal';font-variant-ligatures:normal;font-variant-caps:normal;font-variant-numeric:normal;font-feature-settings:normal;text-align:start" aria-label="EFFICIENT PEOPLE" font-weight="400" font-size="14.817" font-family="Myriad Pro" fill="#6d6e70"/></g></svg>